<?xml version="1.0" encoding="utf-8"?>
<!-- Generator: Adobe Illustrator 27.5.0, SVG Export Plug-In . SVG Version: 6.00 Build 0)  -->
<svg version="1.1" id="Layer_1" xmlns="http://www.w3.org/2000/svg" xmlns:xlink="http://www.w3.org/1999/xlink" x="0px" y="0px"
	 viewBox="0 0 4000 4000" style="enable-background:new 0 0 4000 4000;" xml:space="preserve">
<rect x="-0.5" y="-0.5" style="fill:#FFFFFF;stroke:#000000;stroke-miterlimit:10;" width="4000" height="4000"/>
<g>
	<g>
		<defs>
			<path id="SVGID_1_" d="M1519.757,1873.46c179.09-662.595,68.98-817.016,479.97-848.745
				c410.99,31.729,300.88,186.15,479.97,848.745c78.935-285.406,157.871-570.813,236.806-856.219
				c1055.891,0,356.202,874.804,26.662,1965.337c-177.34,0-354.682,0-532.021,0c-70.472-268.018-140.944-536.037-211.417-804.055
				c-70.473,268.018-140.944,536.037-211.416,804.055c-177.34,0-354.681,0-532.02,0
				c-329.542-1090.533-1029.23-1965.337,26.661-1965.337C1361.886,1302.647,1440.822,1588.054,1519.757,1873.46"/>
		</defs>
		<clipPath id="SVGID_00000067957581931737758460000009123479632346352043_">
			<use xlink:href="#SVGID_1_"  style="overflow:visible;"/>
		</clipPath>
		
			<linearGradient id="SVGID_00000031901443414203439100000004429682149177459585_" gradientUnits="userSpaceOnUse" x1="1999.712" y1="1024.7126" x2="1999.7421" y2="2938.7144">
			<stop  offset="0" style="stop-color:#FFCE4B"/>
			<stop  offset="1" style="stop-color:#C62C1C"/>
		</linearGradient>
		
			<rect x="227.06" y="1017.241" style="clip-path:url(#SVGID_00000067957581931737758460000009123479632346352043_);fill:url(#SVGID_00000031901443414203439100000004429682149177459585_);" width="3545.335" height="1965.337"/>
	</g>
	<g>
		<defs>
			<path id="SVGID_00000102546334727134123610000003584165613188019878_" d="M1519.757,1873.46
				c-78.935-285.406-157.871-570.813-236.806-856.219c-639.917,0-635.027,321.306-458.505,817.214
				C1344.525,2680.756,1519.757,1873.46,1519.757,1873.46"/>
		</defs>
		<clipPath id="SVGID_00000178167802429501258880000012307919715854627466_">
			<use xlink:href="#SVGID_00000102546334727134123610000003584165613188019878_"  style="overflow:visible;"/>
		</clipPath>
		
			<linearGradient id="SVGID_00000009587556425956182660000004920136057509487281_" gradientUnits="userSpaceOnUse" x1="1081.3954" y1="1999.9038" x2="1081.3954" y2="859.9053">
			<stop  offset="0" style="stop-color:#4E046D"/>
			<stop  offset="1" style="stop-color:#DA0BBE"/>
		</linearGradient>
		
			<rect x="643.034" y="1017.241" style="clip-path:url(#SVGID_00000178167802429501258880000012307919715854627466_);fill:url(#SVGID_00000009587556425956182660000004920136057509487281_);" width="876.722" height="1663.515"/>
	</g>
	<g>
		<defs>
			<path id="SVGID_00000028320241747684620310000009412249865186768012_" d="M2716.503,1017.241
				c-78.935,285.406-157.871,570.814-236.806,856.219c0,0,175.233,807.296,695.311-39.005
				C3351.531,1338.546,3356.42,1017.241,2716.503,1017.241"/>
		</defs>
		<clipPath id="SVGID_00000147192318157733343900000014741275448955652244_">
			<use xlink:href="#SVGID_00000028320241747684620310000009412249865186768012_"  style="overflow:visible;"/>
		</clipPath>
		
			<linearGradient id="SVGID_00000183940523431611202220000008973280303038211249_" gradientUnits="userSpaceOnUse" x1="2918.0588" y1="1999.9038" x2="2918.0588" y2="859.9053">
			<stop  offset="0" style="stop-color:#4E046D"/>
			<stop  offset="1" style="stop-color:#DA0BBE"/>
		</linearGradient>
		
			<rect x="2479.697" y="1017.241" style="clip-path:url(#SVGID_00000147192318157733343900000014741275448955652244_);fill:url(#SVGID_00000183940523431611202220000008973280303038211249_);" width="876.723" height="1663.515"/>
	</g>
	<defs>
		<filter id="Adobe_OpacityMaskFilter" filterUnits="userSpaceOnUse" x="824.446" y="1024.715" width="2350.562" height="1405.489">
			<feColorMatrix  type="matrix" values="1 0 0 0 0  0 1 0 0 0  0 0 1 0 0  0 0 0 1 0"/>
		</filter>
	</defs>
	
		<mask maskUnits="userSpaceOnUse" x="824.446" y="1024.715" width="2350.562" height="1405.489" id="SVGID_00000023261596341610164540000008535619805675513504_">
		<g style="filter:url(#Adobe_OpacityMaskFilter);">
			
				<linearGradient id="SVGID_00000043422127081388117700000009306010300946103425_" gradientUnits="userSpaceOnUse" x1="168.1104" y1="2386.0205" x2="168.1104" y2="3762.874" gradientTransform="matrix(1 0 0 1 1831.6165 -1478.8691)">
				<stop  offset="0" style="stop-color:#FFFFFF"/>
				<stop  offset="1" style="stop-color:#000000"/>
			</linearGradient>
			
				<rect x="824.446" y="1024.715" style="fill:url(#SVGID_00000043422127081388117700000009306010300946103425_);" width="2350.562" height="1405.489"/>
		</g>
	</mask>
	
		<path style="mask:url(#SVGID_00000023261596341610164540000008535619805675513504_);fill-rule:evenodd;clip-rule:evenodd;fill:#FCE2A6;" d="
		M1999.727,1233.943c410.99,31.729,300.88,186.151,479.97,848.746c0,0,134.641,620.29,518.158,203.438
		c65.548-161.982,128.004-313.595,177.153-451.672c-520.078,846.301-695.311,39.005-695.311,39.005
		c-179.09-662.595-68.98-817.016-479.97-848.745c-410.99,31.729-300.88,186.15-479.97,848.745c0,0-175.232,807.296-695.31-39.005
		c49.149,138.077,111.605,289.69,177.153,451.672c383.517,416.853,518.157-203.438,518.157-203.438
		C1698.847,1420.094,1588.737,1265.672,1999.727,1233.943"/>
	<g>
		<defs>
			<path id="SVGID_00000036960331216903037780000007026616703454554037_" d="M1282.951,1017.241
				c-533.256,312.562,32.456,1188.348,32.456,1188.348c146.858-67.264,204.349-332.128,204.349-332.128
				C1440.822,1588.054,1361.886,1302.647,1282.951,1017.241"/>
		</defs>
		<clipPath id="SVGID_00000062160240387784792870000013792974838811202977_">
			<use xlink:href="#SVGID_00000036960331216903037780000007026616703454554037_"  style="overflow:visible;"/>
		</clipPath>
		
			<linearGradient id="SVGID_00000047747348180110671980000011054443042256266662_" gradientUnits="userSpaceOnUse" x1="1134.7112" y1="1021.7779" x2="1134.7395" y2="2179.0601">
			<stop  offset="0" style="stop-color:#FFCE4B"/>
			<stop  offset="1" style="stop-color:#C62C1C"/>
		</linearGradient>
		
			<rect x="749.695" y="1017.241" style="clip-path:url(#SVGID_00000062160240387784792870000013792974838811202977_);fill:url(#SVGID_00000047747348180110671980000011054443042256266662_);" width="770.062" height="1188.348"/>
	</g>
	<defs>
		
			<filter id="Adobe_OpacityMaskFilter_00000137819629454252135690000012705639337803778193_" filterUnits="userSpaceOnUse" x="824.446" y="1680.363" width="490.961" height="540.611">
			<feColorMatrix  type="matrix" values="1 0 0 0 0  0 1 0 0 0  0 0 1 0 0  0 0 0 1 0"/>
		</filter>
	</defs>
	
		<mask maskUnits="userSpaceOnUse" x="824.446" y="1680.363" width="490.961" height="540.611" id="SVGID_00000025440150606528714220000003183642233315671183_">
		<g style="filter:url(#Adobe_OpacityMaskFilter_00000137819629454252135690000012705639337803778193_);">
			
				<linearGradient id="SVGID_00000118398135097234351420000015889506072514306988_" gradientUnits="userSpaceOnUse" x1="-466.2932" y1="3833.5894" x2="-1019.7432" y2="3212.6443" gradientTransform="matrix(1 0 0 1 1831.6165 -1551.4991)">
				<stop  offset="0" style="stop-color:#FFFFFF"/>
				<stop  offset="1" style="stop-color:#000000"/>
			</linearGradient>
			
				<rect x="824.446" y="1680.363" style="fill:url(#SVGID_00000118398135097234351420000015889506072514306988_);" width="490.961" height="540.612"/>
		</g>
	</mask>
	
		<path style="mask:url(#SVGID_00000025440150606528714220000003183642233315671183_);fill-rule:evenodd;clip-rule:evenodd;fill:#3E005D;" d="
		M1086.153,1680.363c27.487,199.317,30.416,485.763-261.707,154.091c222.183,361.549,381.428,421.302,490.961,371.134
		C1315.407,2205.588,1155.95,1958.731,1086.153,1680.363"/>
	<g>
		<defs>
			<path id="SVGID_00000057132470513093406610000012182195924574387889_" d="M2716.503,1017.241
				c533.256,312.562-32.456,1188.348-32.456,1188.348c-146.858-67.264-204.35-332.128-204.35-332.128
				C2558.632,1588.054,2637.568,1302.647,2716.503,1017.241"/>
		</defs>
		<clipPath id="SVGID_00000125560691452943634300000012346026199650354577_">
			<use xlink:href="#SVGID_00000057132470513093406610000012182195924574387889_"  style="overflow:visible;"/>
		</clipPath>
		
			<linearGradient id="SVGID_00000180344462469969305690000017339095823485002116_" gradientUnits="userSpaceOnUse" x1="2864.7285" y1="1021.7742" x2="2864.7285" y2="2179.0571">
			<stop  offset="0" style="stop-color:#FFCE4B"/>
			<stop  offset="1" style="stop-color:#C62C1C"/>
		</linearGradient>
		
			<rect x="2479.697" y="1017.241" style="clip-path:url(#SVGID_00000125560691452943634300000012346026199650354577_);fill:url(#SVGID_00000180344462469969305690000017339095823485002116_);" width="770.062" height="1188.348"/>
	</g>
	<defs>
		
			<filter id="Adobe_OpacityMaskFilter_00000089571893278103936180000015143075496452129453_" filterUnits="userSpaceOnUse" x="2684.047" y="1680.363" width="490.961" height="540.611">
			<feColorMatrix  type="matrix" values="1 0 0 0 0  0 1 0 0 0  0 0 1 0 0  0 0 0 1 0"/>
		</filter>
	</defs>
	
		<mask maskUnits="userSpaceOnUse" x="2684.047" y="1680.363" width="490.961" height="540.611" id="SVGID_00000178167310251833884850000012593881884601702563_">
		<g style="filter:url(#Adobe_OpacityMaskFilter_00000089571893278103936180000015143075496452129453_);">
			
				<linearGradient id="SVGID_00000156560648360723252820000011701652675933755041_" gradientUnits="userSpaceOnUse" x1="157.0056" y1="3833.5864" x2="710.4244" y2="3212.6436" gradientTransform="matrix(1 0 0 1 2477.1433 -1551.4991)">
				<stop  offset="0" style="stop-color:#FFFFFF"/>
				<stop  offset="1" style="stop-color:#000000"/>
			</linearGradient>
			
				<rect x="2684.047" y="1680.363" style="fill:url(#SVGID_00000156560648360723252820000011701652675933755041_);" width="490.961" height="540.612"/>
		</g>
	</mask>
	
		<path style="mask:url(#SVGID_00000178167310251833884850000012593881884601702563_);fill-rule:evenodd;clip-rule:evenodd;fill:#3E005D;" d="
		M2913.301,1680.363c-27.487,199.317-30.416,485.763,261.707,154.091c-222.183,361.549-381.428,421.302-490.961,371.134
		C2684.047,2205.588,2843.504,1958.731,2913.301,1680.363"/>
</g>
</svg>
